<svg width="36" height="39" viewBox="0 0 36 39" fill="none" xmlns="http://www.w3.org/2000/svg">
<g filter="url(#filter0_d_5_15363)">
<path d="M17.5 21.875H13.125V17.5L26.25 4.375L30.625 8.75L17.5 21.875Z" stroke="#2191D0" stroke-width="1.5" stroke-linecap="round" stroke-linejoin="round"/>
<path d="M22.9688 7.65625L27.3438 12.0313" stroke="#2191D0" stroke-width="1.5" stroke-linecap="round" stroke-linejoin="round"/>
<path d="M29.5312 16.4062V28.4375C29.5312 28.7276 29.416 29.0058 29.2109 29.2109C29.0058 29.416 28.7276 29.5312 28.4375 29.5312H6.5625C6.27242 29.5312 5.99422 29.416 5.7891 29.2109C5.58398 29.0058 5.46875 28.7276 5.46875 28.4375V6.5625C5.46875 6.27242 5.58398 5.99422 5.7891 5.7891C5.99422 5.58398 6.27242 5.46875 6.5625 5.46875H18.5938" stroke="#2191D0" stroke-width="1.5" stroke-linecap="round" stroke-linejoin="round"/>
</g>
<defs>
<filter id="filter0_d_5_15363" x="-4" y="0" width="43" height="43" filterUnits="userSpaceOnUse" color-interpolation-filters="sRGB">
<feFlood flood-opacity="0" result="BackgroundImageFix"/>
<feColorMatrix in="SourceAlpha" type="matrix" values="0 0 0 0 0 0 0 0 0 0 0 0 0 0 0 0 0 0 127 0" result="hardAlpha"/>
<feOffset dy="4"/>
<feGaussianBlur stdDeviation="2"/>
<feComposite in2="hardAlpha" operator="out"/>
<feColorMatrix type="matrix" values="0 0 0 0 0 0 0 0 0 0 0 0 0 0 0 0 0 0 0.25 0"/>
<feBlend mode="normal" in2="BackgroundImageFix" result="effect1_dropShadow_5_15363"/>
<feBlend mode="normal" in="SourceGraphic" in2="effect1_dropShadow_5_15363" result="shape"/>
</filter>
</defs>
</svg>
