<svg width="35" height="35" viewBox="0 0 35 35" fill="none" xmlns="http://www.w3.org/2000/svg">
<path d="M29.5312 7.65625H5.46875" stroke="#C36355" stroke-width="1.5" stroke-linecap="round" stroke-linejoin="round"/>
<path d="M14.2188 14.2188V22.9688" stroke="#C36355" stroke-width="1.5" stroke-linecap="round" stroke-linejoin="round"/>
<path d="M20.7812 14.2188V22.9688" stroke="#C36355" stroke-width="1.5" stroke-linecap="round" stroke-linejoin="round"/>
<path d="M27.3438 7.65625V28.4375C27.3438 28.7276 27.2285 29.0058 27.0234 29.2109C26.8183 29.416 26.5401 29.5312 26.25 29.5312H8.75C8.45992 29.5312 8.18172 29.416 7.9766 29.2109C7.77148 29.0058 7.65625 28.7276 7.65625 28.4375V7.65625" stroke="#C36355" stroke-width="1.5" stroke-linecap="round" stroke-linejoin="round"/>
<path d="M22.9687 7.65625V5.46875C22.9687 4.88859 22.7383 4.33219 22.328 3.92195C21.9178 3.51172 21.3614 3.28125 20.7812 3.28125H14.2187C13.6386 3.28125 13.0822 3.51172 12.672 3.92195C12.2617 4.33219 12.0312 4.88859 12.0312 5.46875V7.65625" stroke="#C36355" stroke-width="1.5" stroke-linecap="round" stroke-linejoin="round"/>
</svg>
