 <svg display="none" xmlns="http://www.w3.org/2000/svg">

  <symbol id="remove" viewBox="0 0 35 35">
    <g>
      <path d="M29.5312 7.65625H5.46875
      M14.2188 14.2188V22.9688
      M20.7812 14.2188V22.9688
      M27.3438 7.65625V28.4375C27.3438 28.7276 27.2285 29.0058 27.0234 29.2109C26.8183 29.416 26.5401 29.5312 26.25 29.5312H8.75C8.45992 29.5312 8.18172 29.416 7.9766 29.2109C7.77148 29.0058 7.65625 28.7276 7.65625 28.4375V7.65625
      M22.9687 7.65625V5.46875C22.9687 4.88859 22.7383 4.33219 22.328 3.92195C21.9178 3.51172 21.3614 3.28125 20.7812 3.28125H14.2187C13.6386 3.28125 13.0822 3.51172 12.672 3.92195C12.2617 4.33219 12.0312 4.88859 12.0312 5.46875V7.65625" stroke-width="1.5" stroke-linecap="round" stroke-linejoin="round" fill="none" />
    </g>
  </symbol>

  <symbol id="edit" viewBox="0 0 35 35">
    <g>
      <path d="M17.5 21.875H13.125V17.5L26.25 4.375L30.625 8.75L17.5 21.875Z
      M22.9688 7.65625L27.3438 12.0313
      M29.5312 16.4062V28.4375C29.5312 28.7276 29.416 29.0058 29.2109 29.2109C29.0058 29.416 28.7276 29.5312 28.4375 29.5312H6.5625C6.27242 29.5312 5.99422 29.416 5.7891 29.2109C5.58398 29.0058 5.46875 28.7276 5.46875 28.4375V6.5625C5.46875 6.27242 5.58398 5.99422 5.7891 5.7891C5.99422 5.58398 6.27242 5.46875 6.5625 5.46875H18.5938" stroke-width="1.5" stroke-linecap="round" stroke-linejoin="round" fill="none" />
    </g>
  </symbol>

</svg>